<svg xmlns="http://www.w3.org/2000/svg" viewBox="0 0 220 220" role="img" aria-labelledby="title">
  <title>Luna Clara crescent mark</title>
  <defs>
    <linearGradient id="markGold" x1="12%" y1="10%" x2="90%" y2="90%">
      <stop offset="0%" stop-color="#F5E49A"/>
      <stop offset="30%" stop-color="#D4A83A"/>
      <stop offset="55%" stop-color="#EDD070"/>
      <stop offset="80%" stop-color="#B8831A"/>
      <stop offset="100%" stop-color="#E8C050"/>
    </linearGradient>
  </defs>
  <g transform="rotate(22, 110, 104)">
    <path fill-rule="evenodd" fill="url(#markGold)"
      d="M119 36
         A74 74 0 1 1 119 184
         A74 74 0 1 1 119 36 Z
         M77 47
         A64 64 0 1 1 77 175
         A64 64 0 1 1 77 47 Z"/>
    <polygon transform="translate(77,111)" fill="url(#markGold)"
      points="0,-48 1.2,-5.5 15,-15 5.5,-1.2 48,0 5.5,1.2 15,15 1.2,5.5 0,48 -1.2,5.5 -15,15 -5.5,1.2 -48,0 -5.5,-1.2 -15,-15 -1.2,-5.5"/>
    <polygon transform="translate(171,73)" fill="url(#markGold)"
      points="0,-10 1,-1.2 10,0 1,1.2 0,10 -1,1.2 -10,0 -1,-1.2"/>
  </g>
</svg>
